<svg width="1280" height="720" viewBox="0 0 1280 720" fill="none" xmlns="http://www.w3.org/2000/svg">
    <!-- Background -->
    <rect width="1280" height="720" fill="#F9FAFB" />
    
    <!-- Dashboard frame -->
    <rect x="40" y="40" width="1200" height="640" rx="8" fill="white" stroke="#E5E7EB" stroke-width="2" />
    
    <!-- Sidebar -->
    <rect x="40" y="40" width="220" height="640" fill="#10B981" />
    <rect x="40" y="40" width="220" height="640" fill="url(#gradient)" />
    
    <!-- Logo area -->
    <rect x="65" y="70" width="170" height="50" rx="6" fill="white" fill-opacity="0.15" />
    <text x="85" y="103" font-family="Arial" font-weight="bold" font-size="24" fill="white">SPECYF</text>
    
    <!-- Sidebar menu items -->
    <circle cx="80" cy="170" r="6" fill="white" />
    <rect x="100" y="163" width="120" height="14" rx="2" fill="white" fill-opacity="0.9" />
    
    <circle cx="80" cy="220" r="6" fill="white" fill-opacity="0.6" />
    <rect x="100" y="213" width="100" height="14" rx="2" fill="white" fill-opacity="0.6" />
    
    <circle cx="80" cy="270" r="6" fill="white" fill-opacity="0.6" />
    <rect x="100" y="263" width="130" height="14" rx="2" fill="white" fill-opacity="0.6" />
    
    <circle cx="80" cy="320" r="6" fill="white" fill-opacity="0.6" />
    <rect x="100" y="313" width="90" height="14" rx="2" fill="white" fill-opacity="0.6" />
    
    <circle cx="80" cy="370" r="6" fill="white" fill-opacity="0.6" />
    <rect x="100" y="363" width="110" height="14" rx="2" fill="white" fill-opacity="0.6" />
    
    <!-- Top bar -->
    <rect x="260" y="40" width="980" height="70" fill="white" stroke="#E5E7EB" stroke-width="1" />
    
    <!-- Search box -->
    <rect x="290" y="60" width="300" height="32" rx="6" fill="#F3F4F6" />
    <circle cx="310" cy="76" r="6" stroke="#6B7280" stroke-width="1.5" />
    <line x1="315" y1="81" x2="320" y2="86" stroke="#6B7280" stroke-width="1.5" />
    
    <!-- User avatar -->
    <circle cx="1180" cy="75" r="20" fill="#E5E7EB" />
    <path d="M1172 75C1172 70.5817 1175.58 67 1180 67C1184.42 67 1188 70.5817 1188 75C1188 79.4183 1184.42 83 1180 83C1175.58 83 1172 79.4183 1172 75Z" fill="#10B981" />
    <path d="M1165 93C1165 86.3726 1171.82 81 1180 81C1188.18 81 1195 86.3726 1195 93" stroke="#10B981" stroke-width="2" />
    
    <!-- Notification bell -->
    <circle cx="1130" cy="75" r="15" fill="#F3F4F6" />
    <path d="M1130 68V69M1130 69C1127.79 69 1126 70.7909 1126 73V76.2676C1126 76.7376 1125.77 77.1859 1125.4 77.5L1124.71 78.2071C1124.07 78.8462 1124.52 79.9333 1125.41 79.9861L1134.59 79.9861C1135.48 79.9333 1135.93 78.8462 1135.29 78.2071L1134.6 77.5C1134.23 77.1859 1134 76.7376 1134 76.2676V73C1134 70.7909 1132.21 69 1130 69" stroke="#6B7280" stroke-width="1.5" stroke-linecap="round" />
    <path d="M1128 80C1128.33 81.1667 1129.2 82 1130.5 82C1131.8 82 1132.67 81.1667 1133 80" stroke="#6B7280" stroke-width="1.5" stroke-linecap="round" />
    <circle cx="1137" cy="70" r="5" fill="#EF4444" stroke="white" stroke-width="1" />
    
    <!-- Main content area -->
    <rect x="260" y="110" width="980" height="570" fill="#F9FAFB" />
    
    <!-- Page title -->
    <text x="290" y="160" font-family="Arial" font-weight="bold" font-size="24" fill="#111827">Event Dashboard</text>
    
    <!-- Stats cards -->
    <rect x="290" y="180" width="240" height="120" rx="8" fill="white" stroke="#E5E7EB" stroke-width="1" />
    <text x="315" y="220" font-family="Arial" font-size="14" fill="#6B7280">Total Events</text>
    <text x="315" y="260" font-family="Arial" font-weight="bold" font-size="28" fill="#111827">24</text>
    <rect x="425" y="210" width="80" height="60" fill="#F0FDF6" rx="6" />
    <path d="M450 260L465 230L480 245L495 220" stroke="#10B981" stroke-width="2" stroke-linecap="round" stroke-linejoin="round" />
    
    <rect x="550" y="180" width="240" height="120" rx="8" fill="white" stroke="#E5E7EB" stroke-width="1" />
    <text x="575" y="220" font-family="Arial" font-size="14" fill="#6B7280">Total Attendees</text>
    <text x="575" y="260" font-family="Arial" font-weight="bold" font-size="28" fill="#111827">1,248</text>
    <rect x="685" y="210" width="80" height="60" fill="#F0FDF6" rx="6" />
    <path d="M710 250L725 225L740 240L755 210" stroke="#10B981" stroke-width="2" stroke-linecap="round" stroke-linejoin="round" />
    
    <rect x="810" y="180" width="240" height="120" rx="8" fill="white" stroke="#E5E7EB" stroke-width="1" />
    <text x="835" y="220" font-family="Arial" font-size="14" fill="#6B7280">Response Rate</text>
    <text x="835" y="260" font-family="Arial" font-weight="bold" font-size="28" fill="#111827">89%</text>
    <rect x="945" y="210" width="80" height="60" fill="#F0FDF6" rx="6" />
    <circle cx="985" cy="240" r="25" stroke="#D1FAE5" stroke-width="6" />
    <path d="M985 240 m0 -25 a25,25 0 1,1 0,50 a25,25 0 1,1 0,-50" stroke="#10B981" stroke-width="6" stroke-dasharray="157" stroke-dashoffset="17" />
    
    <!-- Upcoming events section -->
    <text x="290" y="340" font-family="Arial" font-weight="bold" font-size="18" fill="#111827">Upcoming Events</text>
    
    <!-- Events table -->
    <rect x="290" y="360" width="760" height="50" rx="8" fill="#F9FAFB" stroke="#E5E7EB" stroke-width="1" />
    <text x="315" y="390" font-family="Arial" font-weight="bold" font-size="14" fill="#374151">Event Name</text>
    <text x="550" y="390" font-family="Arial" font-weight="bold" font-size="14" fill="#374151">Date</text>
    <text x="700" y="390" font-family="Arial" font-weight="bold" font-size="14" fill="#374151">Location</text>
    <text x="880" y="390" font-family="Arial" font-weight="bold" font-size="14" fill="#374151">Attendees</text>
    <text x="990" y="390" font-family="Arial" font-weight="bold" font-size="14" fill="#374151">Status</text>
    
    <!-- Event row 1 -->
    <rect x="290" y="410" width="760" height="60" rx="8" fill="white" stroke="#E5E7EB" stroke-width="1" />
    <text x="315" y="445" font-family="Arial" font-size="14" fill="#111827">Annual Conference 2023</text>
    <text x="550" y="445" font-family="Arial" font-size="14" fill="#6B7280">Jun 15, 2023</text>
    <text x="700" y="445" font-family="Arial" font-size="14" fill="#6B7280">New York, NY</text>
    <text x="880" y="445" font-family="Arial" font-size="14" fill="#6B7280">245 / 300</text>
    <rect x="990" y="430" width="80" height="30" rx="15" fill="#ECFDF5" />
    <text x="1005" y="448" font-family="Arial" font-size="12" fill="#065F46">Active</text>
    
    <!-- Event row 2 -->
    <rect x="290" y="470" width="760" height="60" rx="8" fill="white" stroke="#E5E7EB" stroke-width="1" />
    <text x="315" y="505" font-family="Arial" font-size="14" fill="#111827">Product Launch</text>
    <text x="550" y="505" font-family="Arial" font-size="14" fill="#6B7280">Jul 10, 2023</text>
    <text x="700" y="505" font-family="Arial" font-size="14" fill="#6B7280">Online</text>
    <text x="880" y="505" font-family="Arial" font-size="14" fill="#6B7280">178 / 500</text>
    <rect x="990" y="490" width="80" height="30" rx="15" fill="#ECFDF5" />
    <text x="1005" y="508" font-family="Arial" font-size="12" fill="#065F46">Active</text>
    
    <!-- Event row 3 -->
    <rect x="290" y="530" width="760" height="60" rx="8" fill="white" stroke="#E5E7EB" stroke-width="1" />
    <text x="315" y="565" font-family="Arial" font-size="14" fill="#111827">Team Building Workshop</text>
    <text x="550" y="565" font-family="Arial" font-size="14" fill="#6B7280">Aug 5, 2023</text>
    <text x="700" y="565" font-family="Arial" font-size="14" fill="#6B7280">Chicago, IL</text>
    <text x="880" y="565" font-family="Arial" font-size="14" fill="#6B7280">65 / 100</text>
    <rect x="990" y="550" width="80" height="30" rx="15" fill="#FEF3C7" />
    <text x="1000" y="568" font-family="Arial" font-size="12" fill="#92400E">Planning</text>
    
    <!-- Activity panel -->
    <rect x="1070" y="340" width="170" height="340" rx="8" fill="white" stroke="#E5E7EB" stroke-width="1" />
    <text x="1090" y="370" font-family="Arial" font-weight="bold" font-size="16" fill="#111827">Recent Activity</text>
    
    <!-- Activity items -->
    <circle cx="1095" cy="410" r="6" fill="#10B981" />
    <line x1="1095" y1="416" x2="1095" y2="460" stroke="#E5E7EB" stroke-width="2" />
    <text x="1115" y="405" font-family="Arial" font-size="12" fill="#111827">New registration</text>
    <text x="1115" y="425" font-family="Arial" font-size="11" fill="#6B7280">Annual Conference</text>
    <text x="1115" y="440" font-family="Arial" font-size="10" fill="#9CA3AF">10 minutes ago</text>
    
    <circle cx="1095" cy="480" r="6" fill="#10B981" />
    <line x1="1095" y1="486" x2="1095" y2="530" stroke="#E5E7EB" stroke-width="2" />
    <text x="1115" y="475" font-family="Arial" font-size="12" fill="#111827">Email campaign sent</text>
    <text x="1115" y="495" font-family="Arial" font-size="11" fill="#6B7280">Product Launch</text>
    <text x="1115" y="510" font-family="Arial" font-size="10" fill="#9CA3AF">2 hours ago</text>
    
    <circle cx="1095" cy="550" r="6" fill="#10B981" />
    <line x1="1095" y1="556" x2="1095" y2="600" stroke="#E5E7EB" stroke-width="2" />
    <text x="1115" y="545" font-family="Arial" font-size="12" fill="#111827">Event created</text>
    <text x="1115" y="565" font-family="Arial" font-size="11" fill="#6B7280">Team Building Workshop</text>
    <text x="1115" y="580" font-family="Arial" font-size="10" fill="#9CA3AF">1 day ago</text>
    
    <circle cx="1095" cy="620" r="6" fill="#10B981" />
    <text x="1115" y="615" font-family="Arial" font-size="12" fill="#111827">Poll results updated</text>
    <text x="1115" y="635" font-family="Arial" font-size="11" fill="#6B7280">Annual Conference</text>
    <text x="1115" y="650" font-family="Arial" font-size="10" fill="#9CA3AF">2 days ago</text>
    
    <!-- Gradients -->
    <defs>
        <linearGradient id="gradient" x1="40" y1="40" x2="260" y2="680" gradientUnits="userSpaceOnUse">
            <stop offset="0" stop-color="#059669" />
            <stop offset="1" stop-color="#10B981" />
        </linearGradient>
    </defs>
</svg> 