<?xml version="1.0" encoding="UTF-8" standalone="no"?>
<svg width="600" height="400" viewBox="0 0 600 400" fill="none" xmlns="http://www.w3.org/2000/svg">
  <!-- Background with gradient -->
  <rect width="600" height="400" rx="8" fill="#f0fdf4"/>
  
  <!-- Dashboard container -->
  <rect x="20" y="20" width="560" height="360" rx="6" fill="white" stroke="#e6e6e6" stroke-width="1"/>
  
  <!-- Top navigation bar -->
  <rect x="20" y="20" width="560" height="40" rx="6" fill="#10b981"/>
  <circle cx="40" cy="40" r="10" fill="white" fill-opacity="0.3"/>
  <circle cx="70" cy="40" r="10" fill="white" fill-opacity="0.3"/>
  <circle cx="100" cy="40" r="10" fill="white" fill-opacity="0.3"/>
  
  <!-- Left sidebar -->
  <rect x="20" y="60" width="120" height="320" fill="#f0fdf4"/>
  
  <!-- Sidebar menu items -->
  <rect x="30" y="80" width="100" height="24" rx="4" fill="#10b981" fill-opacity="0.15"/>
  <rect x="30" y="120" width="100" height="20" rx="4" fill="#10b981" fill-opacity="0.1"/>
  <rect x="30" y="160" width="100" height="20" rx="4" fill="#10b981" fill-opacity="0.1"/>
  <rect x="30" y="200" width="100" height="20" rx="4" fill="#10b981" fill-opacity="0.1"/>
  <rect x="30" y="240" width="100" height="20" rx="4" fill="#10b981" fill-opacity="0.1"/>
  
  <!-- Main content area -->
  <!-- Header -->
  <text x="160" y="90" font-family="Arial" font-size="18" font-weight="bold" fill="#111827">Event Dashboard</text>
  
  <!-- Stats cards -->
  <rect x="160" y="110" width="120" height="80" rx="4" fill="white" stroke="#e6e6e6" stroke-width="1"/>
  <circle cx="180" cy="130" r="12" fill="#10b981" fill-opacity="0.2"/>
  <text x="200" y="125" font-family="Arial" font-size="10" fill="#6B7280">Total Events</text>
  <text x="200" y="145" font-family="Arial" font-size="16" font-weight="bold" fill="#111827">24</text>
  <text x="200" y="165" font-family="Arial" font-size="9" fill="#10b981">↑ 12% this month</text>
  
  <rect x="300" y="110" width="120" height="80" rx="4" fill="white" stroke="#e6e6e6" stroke-width="1"/>
  <circle cx="320" cy="130" r="12" fill="#10b981" fill-opacity="0.2"/>
  <text x="340" y="125" font-family="Arial" font-size="10" fill="#6B7280">Attendees</text>
  <text x="340" y="145" font-family="Arial" font-size="16" font-weight="bold" fill="#111827">1,248</text>
  <text x="340" y="165" font-family="Arial" font-size="9" fill="#10b981">↑ 9% this month</text>
  
  <rect x="440" y="110" width="120" height="80" rx="4" fill="white" stroke="#e6e6e6" stroke-width="1"/>
  <circle cx="460" cy="130" r="12" fill="#10b981" fill-opacity="0.2"/>
  <text x="480" y="125" font-family="Arial" font-size="10" fill="#6B7280">Response Rate</text>
  <text x="480" y="145" font-family="Arial" font-size="16" font-weight="bold" fill="#111827">89%</text>
  <text x="480" y="165" font-family="Arial" font-size="9" fill="#10b981">↑ 4% this month</text>
  
  <!-- Table -->
  <rect x="160" y="210" width="280" height="150" rx="4" fill="white" stroke="#e6e6e6" stroke-width="1"/>
  <rect x="160" y="210" width="280" height="30" rx="4" fill="#f9fafb"/>
  <text x="175" y="230" font-family="Arial" font-size="12" font-weight="bold" fill="#374151">Upcoming Events</text>
  
  <line x1="160" y1="240" x2="440" y2="240" stroke="#e6e6e6" stroke-width="1"/>
  <text x="175" y="260" font-family="Arial" font-size="10" fill="#6B7280">Annual Conference 2023</text>
  <text x="175" y="280" font-family="Arial" font-size="10" fill="#6B7280">Product Launch</text>
  <text x="175" y="300" font-family="Arial" font-size="10" fill="#6B7280">Team Building Workshop</text>
  <text x="175" y="320" font-family="Arial" font-size="10" fill="#6B7280">Customer Appreciation Day</text>
  
  <rect x="360" y="255" width="60" height="16" rx="8" fill="#10b981" fill-opacity="0.15"/>
  <text x="370" y="267" font-family="Arial" font-size="9" fill="#10b981">Active</text>
  
  <rect x="360" y="275" width="60" height="16" rx="8" fill="#10b981" fill-opacity="0.15"/>
  <text x="370" y="287" font-family="Arial" font-size="9" fill="#10b981">Active</text>
  
  <rect x="360" y="295" width="60" height="16" rx="8" fill="#fef3c7"/>
  <text x="370" y="307" font-family="Arial" font-size="9" fill="#b45309">Planning</text>
  
  <rect x="360" y="315" width="60" height="16" rx="8" fill="#fef3c7"/>
  <text x="370" y="327" font-family="Arial" font-size="9" fill="#b45309">Planning</text>
  
  <!-- Activity feed -->
  <rect x="460" y="210" width="100" height="150" rx="4" fill="white" stroke="#e6e6e6" stroke-width="1"/>
  <rect x="460" y="210" width="100" height="30" rx="4" fill="#f9fafb"/>
  <text x="470" y="230" font-family="Arial" font-size="12" font-weight="bold" fill="#374151">Recent Activity</text>
  
  <line x1="460" y1="240" x2="560" y2="240" stroke="#e6e6e6" stroke-width="1"/>
  <circle cx="470" cy="255" r="3" fill="#10b981"/>
  <text x="480" y="258" font-family="Arial" font-size="9" fill="#6B7280">New registration</text>
  
  <circle cx="470" cy="275" r="3" fill="#10b981"/>
  <text x="480" y="278" font-family="Arial" font-size="9" fill="#6B7280">Email campaign</text>
  
  <circle cx="470" cy="295" r="3" fill="#10b981"/>
  <text x="480" y="298" font-family="Arial" font-size="9" fill="#6B7280">Event created</text>
  
  <circle cx="470" cy="315" r="3" fill="#10b981"/>
  <text x="480" y="318" font-family="Arial" font-size="9" fill="#6B7280">Poll results</text>
  
  <circle cx="470" cy="335" r="3" fill="#10b981"/>
  <text x="480" y="338" font-family="Arial" font-size="9" fill="#6B7280">Venue confirmed</text>
</svg> 