<?xml version="1.0" encoding="UTF-8" standalone="no"?>
<svg width="1200" height="600" viewBox="0 0 1200 600" fill="none" xmlns="http://www.w3.org/2000/svg">
  <!-- Background with emerald gradient -->
  <rect width="1200" height="600" rx="12" fill="url(#paint0_linear)" />
  
  <!-- Decorative elements -->
  <circle cx="150" cy="150" r="300" fill="#10b981" fill-opacity="0.1" />
  <circle cx="1050" cy="450" r="250" fill="#10b981" fill-opacity="0.1" />
  
  <!-- Calendar Icon -->
  <g transform="translate(150, 200)">
    <rect x="0" y="0" width="120" height="120" rx="16" fill="white" />
    <rect x="16" y="16" width="88" height="88" rx="8" fill="#10b981" fill-opacity="0.1" />
    <rect x="30" y="40" width="60" height="12" rx="2" fill="#10b981" />
    <rect x="30" y="60" width="40" height="12" rx="2" fill="#10b981" />
    <rect x="30" y="80" width="50" height="12" rx="2" fill="#10b981" />
  </g>
  
  <!-- Users Icon -->
  <g transform="translate(300, 200)">
    <rect x="0" y="0" width="120" height="120" rx="16" fill="white" />
    <rect x="16" y="16" width="88" height="88" rx="8" fill="#10b981" fill-opacity="0.1" />
    <circle cx="45" cy="45" r="15" fill="#10b981" />
    <circle cx="75" cy="45" r="15" fill="#10b981" />
    <path d="M35 75 C35 65, 55 65, 55 75" stroke="#10b981" stroke-width="8" stroke-linecap="round" />
    <path d="M65 75 C65 65, 85 65, 85 75" stroke="#10b981" stroke-width="8" stroke-linecap="round" />
  </g>
  
  <!-- Analytics Icon -->
  <g transform="translate(450, 200)">
    <rect x="0" y="0" width="120" height="120" rx="16" fill="white" />
    <rect x="16" y="16" width="88" height="88" rx="8" fill="#10b981" fill-opacity="0.1" />
    <rect x="30" y="40" width="12" height="50" rx="2" fill="#10b981" />
    <rect x="50" y="30" width="12" height="60" rx="2" fill="#10b981" />
    <rect x="70" y="50" width="12" height="40" rx="2" fill="#10b981" />
  </g>
  
  <!-- Dashboard mockup -->
  <g transform="translate(650, 150)">
    <rect x="0" y="0" width="400" height="300" rx="8" fill="white" stroke="#e6e6e6" stroke-width="2" />
    <rect x="0" y="0" width="400" height="40" rx="8" fill="#10b981" />
    <rect x="15" y="55" width="370" height="40" rx="4" fill="#f0fdf4" />
    <rect x="15" y="110" width="120" height="80" rx="4" fill="white" stroke="#e6e6e6" stroke-width="1" />
    <rect x="145" y="110" width="120" height="80" rx="4" fill="white" stroke="#e6e6e6" stroke-width="1" />
    <rect x="275" y="110" width="110" height="80" rx="4" fill="white" stroke="#e6e6e6" stroke-width="1" />
    <rect x="15" y="200" width="240" height="85" rx="4" fill="white" stroke="#e6e6e6" stroke-width="1" />
    <rect x="265" y="200" width="120" height="85" rx="4" fill="white" stroke="#e6e6e6" stroke-width="1" />
    <rect x="25" y="120" width="40" height="8" rx="2" fill="#10b981" fill-opacity="0.2" />
    <rect x="25" y="135" width="60" height="12" rx="2" fill="#111827" />
    <rect x="25" y="155" width="40" height="8" rx="2" fill="#10b981" />
    <rect x="155" y="120" width="40" height="8" rx="2" fill="#10b981" fill-opacity="0.2" />
    <rect x="155" y="135" width="60" height="12" rx="2" fill="#111827" />
    <rect x="155" y="155" width="40" height="8" rx="2" fill="#10b981" />
    <rect x="285" y="120" width="40" height="8" rx="2" fill="#10b981" fill-opacity="0.2" />
    <rect x="285" y="135" width="60" height="12" rx="2" fill="#111827" />
    <rect x="285" y="155" width="40" height="8" rx="2" fill="#10b981" />
    <rect x="25" y="210" width="220" height="10" rx="2" fill="#e5e7eb" />
    <rect x="25" y="230" width="220" height="10" rx="2" fill="#e5e7eb" />
    <rect x="25" y="250" width="220" height="10" rx="2" fill="#e5e7eb" />
    <rect x="25" y="270" width="220" height="10" rx="2" fill="#e5e7eb" />
    <rect x="275" y="210" width="80" height="8" rx="2" fill="#e5e7eb" />
    <rect x="275" y="230" width="80" height="8" rx="2" fill="#e5e7eb" />
    <rect x="275" y="250" width="80" height="8" rx="2" fill="#e5e7eb" />
    <rect x="275" y="270" width="80" height="8" rx="2" fill="#e5e7eb" />
  </g>
  
  <!-- Text -->
  <text x="250" y="400" font-family="Arial" font-size="36" font-weight="bold" fill="white" text-anchor="middle">Event Management</text>
  <text x="250" y="440" font-family="Arial" font-size="24" fill="white" text-anchor="middle">Simplified</text>
  
  <!-- Gradient definitions -->
  <defs>
    <linearGradient id="paint0_linear" x1="0" y1="0" x2="1200" y2="600" gradientUnits="userSpaceOnUse">
      <stop stop-color="#059669" />
      <stop offset="1" stop-color="#10b981" />
    </linearGradient>
  </defs>
</svg> 