<?xml version="1.0" encoding="UTF-8" standalone="no"?>
<svg width="800" height="600" viewBox="0 0 800 600" fill="none" xmlns="http://www.w3.org/2000/svg">
  <!-- Background gradient -->
  <rect width="800" height="600" rx="10" fill="#f0fdf4"/>
  
  <!-- Decorative shapes -->
  <circle cx="400" cy="300" r="250" fill="#10b981" fill-opacity="0.05"/>
  <circle cx="400" cy="300" r="200" fill="#10b981" fill-opacity="0.05"/>
  <circle cx="400" cy="300" r="150" fill="#10b981" fill-opacity="0.05"/>
  
  <!-- Calendar icon -->
  <rect x="300" y="150" width="200" height="200" rx="20" fill="white" stroke="#10b981" stroke-width="4"/>
  <rect x="300" y="150" width="200" height="40" rx="10" fill="#10b981"/>
  <line x1="340" y1="150" x2="340" y2="350" stroke="#10b981" stroke-width="2"/>
  <line x1="380" y1="150" x2="380" y2="350" stroke="#10b981" stroke-width="2"/>
  <line x1="420" y1="150" x2="420" y2="350" stroke="#10b981" stroke-width="2"/>
  <line x1="460" y1="150" x2="460" y2="350" stroke="#10b981" stroke-width="2"/>
  <line x1="300" y1="230" x2="500" y2="230" stroke="#10b981" stroke-width="2"/>
  <line x1="300" y1="270" x2="500" y2="270" stroke="#10b981" stroke-width="2"/>
  <line x1="300" y1="310" x2="500" y2="310" stroke="#10b981" stroke-width="2"/>
  
  <circle cx="380" cy="250" r="10" fill="#10b981" fill-opacity="0.3"/>
  <circle cx="420" cy="250" r="10" fill="#10b981" fill-opacity="0.5"/>
  <circle cx="460" cy="250" r="10" fill="#10b981"/>
  
  <circle cx="340" cy="290" r="10" fill="#10b981" fill-opacity="0.3"/>
  <circle cx="380" cy="290" r="10" fill="#10b981" fill-opacity="0.5"/>
  <circle cx="420" cy="290" r="10" fill="#10b981"/>
  <circle cx="460" cy="290" r="10" fill="#10b981" fill-opacity="0.3"/>
  
  <circle cx="340" cy="330" r="10" fill="#10b981" fill-opacity="0.5"/>
  <circle cx="380" cy="330" r="10" fill="#10b981"/>
  <circle cx="420" cy="330" r="10" fill="#10b981" fill-opacity="0.3"/>
  <circle cx="460" cy="330" r="10" fill="#10b981" fill-opacity="0.5"/>
  
  <!-- Text -->
  <text x="400" y="400" font-family="Arial" font-size="30" font-weight="bold" fill="#059669" text-anchor="middle">Event Management</text>
  <text x="400" y="440" font-family="Arial" font-size="20" fill="#10b981" text-anchor="middle">Organize. Manage. Succeed.</text>
  
  <!-- Specyf Logo -->
  <g transform="translate(375, 480)">
    <rect x="0" y="0" width="50" height="50" rx="5" stroke="#10b981" stroke-width="3" fill="none"/>
    <line x1="15" y1="0" x2="15" y2="50" stroke="#10b981" stroke-width="3"/>
    <line x1="35" y1="0" x2="35" y2="50" stroke="#10b981" stroke-width="3"/>
    <line x1="0" y1="15" x2="50" y2="15" stroke="#10b981" stroke-width="3"/>
    <line x1="0" y1="35" x2="50" y2="35" stroke="#10b981" stroke-width="3"/>
  </g>
</svg> 