<svg width="600" height="400" xmlns="http://www.w3.org/2000/svg">
  <style>
    .title { font: bold 24px sans-serif; fill: white; }
    .subtitle { font: 16px sans-serif; fill: white; }
    .heading { font: bold 18px sans-serif; fill: #111827; }
    .stat-label { font: 14px sans-serif; fill: #6B7280; }
    .stat-value { font: bold 20px sans-serif; fill: #111827; }
    .table-heading { font: bold 12px sans-serif; fill: #374151; }
    .table-data { font: 12px sans-serif; fill: #111827; }
  </style>
  
  <!-- Header -->
  <rect width="600" height="60" fill="#059669"/>
  <text x="20" y="38" class="title">Specyf</text>
  <text x="100" y="38" class="subtitle">Event Dashboard</text>
  
  <!-- Main content -->
  <rect y="60" width="600" height="340" fill="white"/>
  <text x="20" y="90" class="heading">Annual Tech Conference 2023</text>
  
  <!-- Stat cards -->
  <rect x="20" y="110" width="170" height="70" rx="4" fill="#ecfdf5" stroke="#a7f3d0" stroke-width="1"/>
  <text x="30" y="135" class="stat-label">Total Guests</text>
  <text x="30" y="160" class="stat-value">248</text>
  
  <rect x="210" y="110" width="170" height="70" rx="4" fill="#ecfdf5" stroke="#a7f3d0" stroke-width="1"/>
  <text x="220" y="135" class="stat-label">Confirmed</text>
  <text x="220" y="160" class="stat-value">183</text>
  
  <rect x="400" y="110" width="170" height="70" rx="4" fill="#ecfdf5" stroke="#a7f3d0" stroke-width="1"/>
  <text x="410" y="135" class="stat-label">Pending</text>
  <text x="410" y="160" class="stat-value">65</text>
  
  <!-- Table -->
  <rect x="20" y="200" width="560" height="120" rx="4" fill="white" stroke="#e5e7eb" stroke-width="1"/>
  <rect x="20" y="200" width="560" height="30" rx="4 4 0 0" fill="#f9fafb"/>
  <text x="30" y="220" class="table-heading">Name</text>
  <text x="150" y="220" class="table-heading">Email</text>
  <text x="350" y="220" class="table-heading">Status</text>
  <text x="480" y="220" class="table-heading">Action</text>
  
  <!-- Buttons -->
  <rect x="20" y="340" width="120" height="40" rx="4" fill="#059669"/>
  <text x="45" y="365" class="subtitle">Add Guests</text>
  
  <rect x="160" y="340" width="180" height="40" rx="4" fill="white" stroke="#059669" stroke-width="1"/>
  <text x="180" y="365" style="font: 16px sans-serif; fill: #059669;">Send Announcements</text>
</svg> 