<svg width="600" height="400" xmlns="http://www.w3.org/2000/svg">
  <style>
    .title { font: bold 24px sans-serif; fill: white; }
    .subtitle { font: 16px sans-serif; fill: white; }
    .heading { font: bold 18px sans-serif; fill: #111827; }
    .stat-label { font: 14px sans-serif; fill: #6B7280; }
    .stat-value { font: bold 20px sans-serif; fill: #111827; }
    .table-heading { font: bold 12px sans-serif; fill: #374151; }
    .table-data { font: 12px sans-serif; fill: #111827; }
  </style>
  
  <!-- Header -->
  <rect width="600" height="60" fill="#2563eb"/>
  <text x="20" y="38" class="title">Specyf</text>
  <text x="100" y="38" class="subtitle">Organizer Tools</text>
  
  <!-- Main content -->
  <rect y="60" width="600" height="340" fill="white"/>
  <text x="20" y="90" class="heading">Team Collaboration</text>
  
  <!-- Stat cards -->
  <rect x="20" y="110" width="170" height="70" rx="4" fill="#eff6ff" stroke="#bfdbfe" stroke-width="1"/>
  <text x="30" y="135" class="stat-label">Team Members</text>
  <text x="30" y="160" class="stat-value">8</text>
  
  <rect x="210" y="110" width="170" height="70" rx="4" fill="#eff6ff" stroke="#bfdbfe" stroke-width="1"/>
  <text x="220" y="135" class="stat-label">Tasks</text>
  <text x="220" y="160" class="stat-value">24</text>
  
  <rect x="400" y="110" width="170" height="70" rx="4" fill="#eff6ff" stroke="#bfdbfe" stroke-width="1"/>
  <text x="410" y="135" class="stat-label">Completed</text>
  <text x="410" y="160" class="stat-value">16</text>
  
  <!-- Table -->
  <rect x="20" y="200" width="560" height="120" rx="4" fill="white" stroke="#e5e7eb" stroke-width="1"/>
  <rect x="20" y="200" width="560" height="30" rx="4 4 0 0" fill="#f9fafb"/>
  <text x="30" y="220" class="table-heading">Task</text>
  <text x="200" y="220" class="table-heading">Assigned To</text>
  <text x="350" y="220" class="table-heading">Due Date</text>
  <text x="480" y="220" class="table-heading">Status</text>
  
  <!-- Buttons -->
  <rect x="20" y="340" width="140" height="40" rx="4" fill="#2563eb"/>
  <text x="35" y="365" class="subtitle">Assign New Task</text>
  
  <rect x="180" y="340" width="140" height="40" rx="4" fill="white" stroke="#2563eb" stroke-width="1"/>
  <text x="195" y="365" style="font: 16px sans-serif; fill: #2563eb;">Team Schedule</text>
</svg> 